PathFileType	4	(X/Y/Z)	G:\Shared drives\HPL_Drive\Pi-Spi Study\20230118_AMCsubject1\Trimmed_left_flex_18001_rotated.trc
DataRate	CameraRate	NumFrames	NumMarkers	Units	OrigDataRate	OrigDataStartFrame	OrigNumFrames
200.00	200.00	       5	35	mm	200.00	26	       200
Frame#	Time	C7			Sternum			r_AMC1			r_AMC2			r_AMC3			l_AMC1			l_AMC2			l_AMC3			PX			T8			r_humerous			r_elbow_medial			r_elbow_lateral			r_forearm			r_wrist_radius			r_wrist_ulna			r_MCP_1			r_MCP_3			l_humerous			l_elbow_medial			l_elbow_lateral			l_forearm			l_wrist_radius			l_wrist_ulna			l_MCP_1			l_MCP_3			r_ASIS			r_PSIS			l_ASIS			l_PSIS			r_IC			l_IC			TS			AI			AA			
		X1	Y1	Z1	X2	Y2	Z2	X3	Y3	Z3	X4	Y4	Z4	X5	Y5	Z5	X6	Y6	Z6	X7	Y7	Z7	X8	Y8	Z8	X9	Y9	Z9	X10	Y10	Z10	X11	Y11	Z11	X12	Y12	Z12	X13	Y13	Z13	X14	Y14	Z14	X15	Y15	Z15	X16	Y16	Z16	X17	Y17	Z17	X18	Y18	Z18	X19	Y19	Z19	X20	Y20	Z20	X21	Y21	Z21	X22	Y22	Z22	X23	Y23	Z23	X24	Y24	Z24	X25	Y25	Z25	X26	Y26	Z26	X27	Y27	Z27	X28	Y28	Z28	X29	Y29	Z29	X30	Y30	Z30	X31	Y31	Z31	X32	Y32	Z32	X33	Y33	Z33	X34	Y34	Z34	X35	Y35	Z35	

26	0.125	196.2898	1368.4955	-235.8056	332.5995	1325.3485	-205.5701	178.6936	1317.9884	-79.007	208.6962	1321.676	-38.4684	229.4585	1357.9517	-56.8671	203.2029	1341.8417	-359.8326	237.9923	1376.7716	-373.6131	226.0686	1397.5164	-326.667	406.634	1134.7545	-199.6461	175.4843	1189.9919	-240.8653	292.8438	1141.9517	-12.9191	232.6916	997.183	-43.8443	243.903	1008.5836	21.092	301.8411	855.8424	48.1472	353.8655	794.0823	31.8028	306.0494	785.5958	48.4447	378.0985	712.7853	46.7729	329.0908	707.8798	59.8198	316.5765	1476.5007	-352.8547	408.1525	1565.2147	-430.6076	362.5266	1590.5443	-438.7112	384.706	1749.8362	-439.445	395.0961	1823.0253	-422.0507	430.927	1818.5502	-445.8933	398.7313	1897.6715	-429.6126	437.924	1894.7939	-448.0878	372.827	907.1121	-79.3957	185.4221	928.7795	-165.2007	374.8488	894.4628	-337.6798	187.0103	922.5978	-267.375	291.5507	970.8567	-53.411	290.2986	941.1347	-377.5168	140.0294	1291.0371	-335.6677	168.6052	1199.717	-368.4755	199.0448	1353.9067	-444.144
27	0.13	196.2579	1368.4994	-235.7699	332.5811	1325.3197	-205.5638	178.6607	1317.9688	-78.9918	208.7311	1321.5575	-38.4569	229.4722	1357.8709	-56.9132	203.1714	1341.8394	-359.8044	237.9678	1376.7689	-373.596	226.0506	1397.5041	-326.6653	406.6417	1134.7277	-199.6538	175.4619	1189.9735	-240.8522	292.8016	1141.9651	-12.9048	232.6727	997.1785	-43.859	243.8402	1008.5206	21.0748	301.8517	855.7993	48.1134	353.8059	794.1299	31.7922	305.9352	785.6871	48.5476	378.0779	712.6653	46.7678	329.0951	707.7759	59.7241	316.5327	1476.5238	-352.8248	408.1264	1565.2041	-430.5924	362.5101	1590.5176	-438.6976	384.7216	1749.8086	-439.4783	395.1241	1823.0067	-422.0305	430.9835	1818.4794	-445.9128	398.761	1897.6421	-429.6341	437.9561	1894.7642	-448.1404	372.7826	907.1101	-79.3428	185.4075	928.7792	-165.1887	374.8697	894.4282	-337.6702	186.9897	922.5769	-267.3928	291.551	970.8642	-53.3695	290.363	941.0804	-377.4957	140.0108	1291.059	-335.6472	168.5629	1199.7076	-368.452	199.0605	1353.8894	-444.1453
28	0.135	196.245	1368.4866	-235.7545	332.5567	1325.3361	-205.5397	178.6202	1317.9667	-78.9617	208.6457	1321.5981	-38.4068	229.4496	1357.9135	-56.9136	203.1344	1341.8125	-359.7949	237.9489	1376.7417	-373.6015	226.0476	1397.5083	-326.6585	406.657	1134.7545	-199.6304	175.4388	1189.9591	-240.8422	292.7638	1141.8906	-12.8841	232.6397	997.1594	-43.8753	243.8018	1008.5007	21.0927	301.7913	855.776	48.1075	353.7477	794.0679	31.788	305.934	785.6198	48.4979	377.7993	712.569	46.6608	329.0646	707.7853	59.7349	316.5621	1476.4395	-352.8252	408.1209	1565.149	-430.588	362.4809	1590.5143	-438.7039	384.724	1749.7929	-439.4588	395.1309	1822.965	-422.0755	430.9744	1818.4545	-445.9594	398.7718	1897.65	-429.6743	437.956	1894.7183	-448.1472	372.8506	907.1019	-79.394	185.4259	928.7698	-165.1775	374.8616	894.4125	-337.6634	187.0152	922.5645	-267.3838	291.5904	970.7689	-53.362	290.2933	941.1494	-377.5129	139.9721	1291.0343	-335.6363	168.5206	1199.6804	-368.437	198.988	1353.8673	-444.1107
29	0.14	196.2259	1368.4827	-235.746	332.5522	1325.2986	-205.5225	178.6059	1317.9327	-78.9667	208.6641	1321.5273	-38.4197	229.4055	1357.8693	-56.8244	203.1239	1341.8198	-359.7899	237.9242	1376.7402	-373.5782	226.0099	1397.5239	-326.6448	406.5417	1134.7369	-199.616	175.4333	1189.9585	-240.8328	292.7486	1141.8877	-12.8982	232.6146	997.148	-43.8768	243.7972	1008.5085	21.0859	301.8227	855.717	48.0477	353.786	793.9468	31.7236	306.0177	785.4753	48.3586	377.8288	712.4395	46.6011	328.9749	707.8182	59.7315	316.5095	1476.4842	-352.8123	408.0908	1565.1655	-430.5882	362.4956	1590.4916	-438.7035	384.7394	1749.7786	-439.5003	395.1521	1822.9436	-422.0854	431.0409	1818.3615	-445.9823	398.7735	1897.6215	-429.703	437.9503	1894.6987	-448.185	372.8287	907.067	-79.3564	185.4376	928.7689	-165.1852	374.8694	894.385	-337.6554	187.0216	922.5701	-267.3635	291.5675	970.7918	-53.3537	290.4398	941.0278	-377.5018	139.9454	1291.0512	-335.5673	168.5017	1199.6691	-368.3985	198.9697	1353.8531	-444.0921
30	0.145	196.1883	1368.4735	-235.7179	332.5225	1325.3054	-205.5214	178.5749	1317.948	-78.9401	208.6722	1321.4938	-38.4032	229.3743	1357.8419	-56.7689	203.0868	1341.8253	-359.7606	237.8834	1376.7406	-373.5799	225.9882	1397.5236	-326.6168	406.5872	1134.7098	-199.5918	175.4137	1189.9658	-240.8139	292.6863	1141.8508	-12.8507	232.5973	997.1193	-43.9013	243.7302	1008.4443	21.0663	301.7637	855.7016	48.0564	353.7763	793.9	31.6223	305.8785	785.5001	48.3221	377.7591	712.4749	46.5772	329.0548	707.6125	59.6318	316.4449	1476.5474	-352.8619	408.0796	1565.1258	-430.5677	362.4948	1590.4773	-438.7077	384.7643	1749.7571	-439.5001	395.1414	1822.9552	-422.1054	431.0781	1818.3469	-445.9577	398.8359	1897.6167	-429.7451	437.9789	1894.6428	-448.1997	372.8701	907.1091	-79.3388	185.4363	928.7493	-165.165	374.9023	894.4049	-337.6435	187.0332	922.5752	-267.3546	291.5789	970.84	-53.3506	290.4548	941.0106	-377.4786	139.9222	1291.0426	-335.5711	168.4803	1199.6978	-368.3445	198.9342	1353.8021	-444.0774
